<svg version="1.1" id="Layer_1" xmlns="http://www.w3.org/2000/svg" xmlns:xlink="http://www.w3.org/1999/xlink" x="0px" y="0px"
	 width="100%" viewBox="0 0 820 679" enable-background="new 0 0 820 679" xml:space="preserve">
<path fill="#F6F6F6" opacity="1.000000" stroke="none" 
	d="
M409.000000,680.000000 
	C272.666656,680.000000 136.833328,680.000000 1.000000,680.000000 
	C1.000000,453.666656 1.000000,227.333328 1.000000,1.000000 
	C274.333344,1.000000 547.666687,1.000000 821.000000,1.000000 
	C821.000000,227.333328 821.000000,453.666656 821.000000,680.000000 
	C683.833313,680.000000 546.666687,680.000000 409.000000,680.000000 
M239.500000,639.785339 
	C261.994812,639.785400 284.490112,639.878601 306.984375,639.765198 
	C347.951782,639.558594 388.918304,639.131897 429.885834,639.002747 
	C444.658051,638.956177 459.431763,639.716248 474.205383,639.738464 
	C535.361633,639.830322 596.518250,639.726257 657.674194,639.890747 
	C662.347778,639.903320 663.101013,638.253601 663.073792,634.117249 
	C662.907349,608.789307 662.788391,583.456726 663.154907,558.132996 
	C663.231384,552.848206 661.107239,551.510193 656.750610,551.146851 
	C640.680237,549.806335 624.619751,548.343933 608.544678,547.063843 
	C594.959839,545.982056 581.349915,545.208130 567.771729,544.054810 
	C562.214233,543.582764 560.847595,541.286316 562.186768,535.955261 
	C564.729797,525.831970 567.788696,515.809326 569.753357,505.575989 
	C573.214966,487.545105 571.447937,470.147125 561.567932,454.104156 
	C551.770142,438.194855 539.137329,424.765472 525.066040,412.681641 
	C504.810150,395.286682 483.276550,379.720276 459.210419,367.865051 
	C451.039886,363.840179 443.019714,359.488159 435.086243,355.010345 
	C426.922882,350.402832 425.700256,344.811066 431.079834,338.442932 
	C437.291229,331.090240 437.230835,324.055359 430.607941,316.719086 
	C428.290100,314.151581 425.502167,311.430176 421.599884,313.125305 
	C418.065460,314.660583 414.599701,322.881409 415.649780,326.033203 
	C417.610504,331.918427 419.630371,337.785736 421.472382,343.708160 
	C423.063232,348.822937 420.136108,355.715637 415.525330,356.931580 
	C398.667908,361.377319 384.192749,370.662720 369.738129,379.744629 
	C343.139191,396.457062 321.286713,418.505585 300.404572,441.816223 
	C285.154114,458.840210 280.835663,478.077942 284.622559,499.617584 
	C286.718597,511.539429 290.358826,523.188232 293.261261,534.970398 
	C295.068054,542.304993 293.163940,544.661682 285.531982,544.955933 
	C281.053986,545.128601 276.584198,545.514404 272.110748,545.805542 
	C267.965881,546.075317 264.607178,544.767883 264.049255,540.278259 
	C263.564209,536.375244 263.972443,532.369202 263.825592,528.414673 
	C263.269745,513.446228 262.589447,498.482300 262.066254,483.512817 
	C261.333832,462.558899 260.701477,441.601562 260.024200,420.645721 
	C259.040253,390.201019 257.961609,359.758972 257.104584,329.310669 
	C256.604462,311.542419 256.580475,293.769836 259.165741,276.109039 
	C260.313446,268.268860 261.416107,260.422089 262.553375,252.580338 
	C263.314240,247.334000 264.500702,242.103104 264.656250,236.840469 
	C264.710266,235.013290 262.640320,232.397125 260.840820,231.383911 
	C256.286621,228.819656 254.224258,225.812881 255.522156,220.922623 
	C257.271484,214.331406 258.973236,207.680954 261.416656,201.333588 
	C263.870575,194.958923 263.691650,189.118256 260.654663,183.085648 
	C258.804077,179.409683 256.022675,175.495178 256.047363,171.703354 
	C256.160919,154.244827 255.995270,136.651917 258.153046,119.385048 
	C259.632721,107.544388 257.230103,98.139923 249.897034,89.398354 
	C244.871658,83.407722 239.786789,77.465584 234.844894,71.406853 
	C231.987640,67.903870 229.034744,64.361664 233.053574,59.600819 
	C233.853455,58.653259 234.030045,56.589340 233.623611,55.318588 
	C232.080917,50.495033 230.180939,45.785748 228.348160,40.855110 
	C222.650574,45.178711 219.190720,55.578590 222.162125,60.807468 
	C224.903122,65.630859 223.385071,69.072990 220.304901,72.453308 
	C215.595367,77.621719 210.718872,82.639214 205.869629,87.678810 
	C198.112274,95.740730 194.441544,104.955292 196.785446,116.332573 
	C200.745819,135.556183 199.223450,155.116028 199.741837,174.541672 
	C199.785675,176.184509 198.271942,178.487198 196.804337,179.442245 
	C191.244553,183.060272 189.546783,186.234604 191.298645,192.949387 
	C193.144852,200.025757 195.210648,207.067444 197.634491,213.964752 
	C200.664093,222.585724 199.342178,229.060410 192.074936,234.195099 
	C189.143723,236.266174 188.564026,238.507904 189.439270,241.378616 
	C191.569580,248.365753 194.080032,255.238586 196.140350,262.244812 
	C197.148819,265.674194 198.397766,269.418671 197.945450,272.808044 
	C197.112946,279.046234 196.633759,284.591766 198.462143,291.170319 
	C200.797623,299.573547 199.946411,309.003632 199.655243,317.964722 
	C199.137009,333.912872 197.816360,349.833527 197.181992,365.779663 
	C196.361832,386.396271 195.789490,407.024170 195.287247,427.651550 
	C194.735947,450.293060 194.495102,472.942322 193.911972,495.582886 
	C193.474976,512.548828 192.564117,529.502991 192.184387,546.469604 
	C192.077042,551.266418 189.939194,552.337036 185.654053,553.235229 
	C177.777008,554.886414 170.067596,557.440308 162.430008,560.034912 
	C161.070862,560.496582 159.617645,562.940247 159.542877,564.531433 
	C159.224899,571.299072 159.491348,578.091492 159.390244,584.872559 
	C159.245331,594.592896 161.811005,598.660278 169.793808,600.395142 
	C176.841431,601.926819 178.933029,605.167297 178.985382,612.500549 
	C179.032944,619.164062 179.013641,625.827942 179.029587,632.491699 
	C179.042114,637.723999 180.871292,639.835510 186.117584,639.879883 
	C190.262802,639.915039 194.414383,639.153076 198.560104,639.181763 
	C211.874146,639.273865 225.186813,639.568420 239.500000,639.785339 
M421.134308,137.945755 
	C421.154175,140.416504 420.813171,142.967957 421.340210,145.325317 
	C421.620422,146.578674 423.404572,147.495789 424.509888,148.564667 
	C425.396912,147.516235 426.862152,146.571747 427.072510,145.401657 
	C428.073059,139.835815 427.073059,134.559082 423.894867,128.408279 
	C422.774689,132.152451 422.033844,134.628738 421.134308,137.945755 
M246.963791,52.914898 
	C246.778442,51.451443 246.593094,49.987988 246.407745,48.524532 
	C242.114853,53.711372 239.895859,59.151001 241.545517,65.362160 
	C241.897949,66.689095 243.588806,67.660545 244.663086,68.795753 
	C245.422165,67.467873 246.713669,66.187408 246.836945,64.802910 
	C247.160843,61.165272 246.976105,57.482338 246.963791,52.914898 
z"/>
<path fill="#56FFA9" opacity="1.000000" stroke="none" 
	d="
M239.000000,639.785156 
	C225.186813,639.568420 211.874146,639.273865 198.560104,639.181763 
	C194.414383,639.153076 190.262802,639.915039 186.117584,639.879883 
	C180.871292,639.835510 179.042114,637.723999 179.029587,632.491699 
	C179.013641,625.827942 179.032944,619.164062 178.985382,612.500549 
	C178.933029,605.167297 176.841431,601.926819 169.793808,600.395142 
	C161.811005,598.660278 159.245331,594.592896 159.390244,584.872559 
	C159.491348,578.091492 159.224899,571.299072 159.542877,564.531433 
	C159.617645,562.940247 161.070862,560.496582 162.430008,560.034912 
	C170.067596,557.440308 177.777008,554.886414 185.654053,553.235229 
	C189.939194,552.337036 192.077042,551.266418 192.184387,546.469604 
	C192.564117,529.502991 193.474976,512.548828 193.911972,495.582886 
	C194.495102,472.942322 194.735947,450.293060 195.287247,427.651550 
	C195.789490,407.024170 196.361832,386.396271 197.181992,365.779663 
	C197.816360,349.833527 199.137009,333.912872 199.655243,317.964722 
	C199.946411,309.003632 200.797623,299.573547 198.462143,291.170319 
	C196.633759,284.591766 197.112946,279.046234 197.945450,272.808044 
	C198.397766,269.418671 197.148819,265.674194 196.140350,262.244812 
	C194.080032,255.238586 191.569580,248.365753 189.439270,241.378616 
	C188.564026,238.507904 189.143723,236.266174 192.074936,234.195099 
	C199.342178,229.060410 200.664093,222.585724 197.634491,213.964752 
	C195.210648,207.067444 193.144852,200.025757 191.298645,192.949387 
	C189.546783,186.234604 191.244553,183.060272 196.804337,179.442245 
	C198.271942,178.487198 199.785675,176.184509 199.741837,174.541672 
	C199.223450,155.116028 200.745819,135.556183 196.785446,116.332573 
	C194.441544,104.955292 198.112274,95.740730 205.869629,87.678810 
	C210.718872,82.639214 215.595367,77.621719 220.304901,72.453308 
	C223.385071,69.072990 224.903122,65.630859 222.162125,60.807468 
	C219.190720,55.578590 222.650574,45.178711 228.348160,40.855110 
	C230.180939,45.785748 232.080917,50.495033 233.623611,55.318588 
	C234.030045,56.589340 233.853455,58.653259 233.053574,59.600819 
	C229.034744,64.361664 231.987640,67.903870 234.844894,71.406853 
	C239.786789,77.465584 244.871658,83.407722 249.897034,89.398354 
	C257.230103,98.139923 259.632721,107.544388 258.153046,119.385048 
	C255.995270,136.651917 256.160919,154.244827 256.047363,171.703354 
	C256.022675,175.495178 258.804077,179.409683 260.654663,183.085648 
	C263.691650,189.118256 263.870575,194.958923 261.416656,201.333588 
	C258.973236,207.680954 257.271484,214.331406 255.522156,220.922623 
	C254.224258,225.812881 256.286621,228.819656 260.840820,231.383911 
	C262.640320,232.397125 264.710266,235.013290 264.656250,236.840469 
	C264.500702,242.103104 263.314240,247.334000 262.553375,252.580338 
	C261.416107,260.422089 260.313446,268.268860 259.165741,276.109039 
	C256.580475,293.769836 256.604462,311.542419 257.104584,329.310669 
	C257.961609,359.758972 259.040253,390.201019 260.024200,420.645721 
	C260.701477,441.601562 261.333832,462.558899 262.066254,483.512817 
	C262.589447,498.482300 263.269745,513.446228 263.825592,528.414673 
	C263.972443,532.369202 263.564209,536.375244 264.049255,540.278259 
	C264.607178,544.767883 267.965881,546.075317 272.110748,545.805542 
	C276.584198,545.514404 281.053986,545.128601 285.531982,544.955933 
	C293.163940,544.661682 295.068054,542.304993 293.261261,534.970398 
	C290.358826,523.188232 286.718597,511.539429 284.622559,499.617584 
	C280.835663,478.077942 285.154114,458.840210 300.404572,441.816223 
	C321.286713,418.505585 343.139191,396.457062 369.738129,379.744629 
	C384.192749,370.662720 398.667908,361.377319 415.525330,356.931580 
	C420.136108,355.715637 423.063232,348.822937 421.472382,343.708160 
	C419.630371,337.785736 417.610504,331.918427 415.649780,326.033203 
	C414.599701,322.881409 418.065460,314.660583 421.599884,313.125305 
	C425.502167,311.430176 428.290100,314.151581 430.607941,316.719086 
	C437.230835,324.055359 437.291229,331.090240 431.079834,338.442932 
	C425.700256,344.811066 426.922882,350.402832 435.086243,355.010345 
	C443.019714,359.488159 451.039886,363.840179 459.210419,367.865051 
	C483.276550,379.720276 504.810150,395.286682 525.066040,412.681641 
	C539.137329,424.765472 551.770142,438.194855 561.567932,454.104156 
	C571.447937,470.147125 573.214966,487.545105 569.753357,505.575989 
	C567.788696,515.809326 564.729797,525.831970 562.186768,535.955261 
	C560.847595,541.286316 562.214233,543.582764 567.771729,544.054810 
	C581.349915,545.208130 594.959839,545.982056 608.544678,547.063843 
	C624.619751,548.343933 640.680237,549.806335 656.750610,551.146851 
	C661.107239,551.510193 663.231384,552.848206 663.154907,558.132996 
	C662.788391,583.456726 662.907349,608.789307 663.073792,634.117249 
	C663.101013,638.253601 662.347778,639.903320 657.674194,639.890747 
	C596.518250,639.726257 535.361633,639.830322 474.205383,639.738464 
	C459.431763,639.716248 444.658051,638.956177 429.885834,639.002747 
	C388.918304,639.131897 347.951782,639.558594 306.984375,639.765198 
	C284.490112,639.878601 261.994812,639.785400 239.000000,639.785156 
M230.730759,206.970108 
	C229.628647,205.266388 228.526550,203.562653 226.998566,201.200577 
	C221.436508,209.189438 221.756302,217.274231 222.102829,225.332779 
	C222.130203,225.969101 222.942749,226.702911 223.561050,227.161148 
	C227.446945,230.041138 232.463226,227.756683 232.695450,222.329865 
	C232.902588,217.489136 231.597748,212.583725 230.730759,206.970108 
z"/>
<path fill="#6EF7B2" opacity="1.000000" stroke="none" 
	d="
M421.213654,137.525391 
	C422.033844,134.628738 422.774689,132.152451 423.894867,128.408279 
	C427.073059,134.559082 428.073059,139.835815 427.072510,145.401657 
	C426.862152,146.571747 425.396912,147.516235 424.509888,148.564667 
	C423.404572,147.495789 421.620422,146.578674 421.340210,145.325317 
	C420.813171,142.967957 421.154175,140.416504 421.213654,137.525391 
z"/>
<path fill="#78F6B6" opacity="1.000000" stroke="none" 
	d="
M246.978882,53.366173 
	C246.976105,57.482338 247.160843,61.165272 246.836945,64.802910 
	C246.713669,66.187408 245.422165,67.467873 244.663086,68.795761 
	C243.588806,67.660545 241.897949,66.689095 241.545517,65.362160 
	C239.895859,59.151001 242.114853,53.711372 246.407745,48.524532 
	C246.593094,49.987988 246.778442,51.451443 246.978882,53.366173 
z"/>
<path fill="#E7FAF1" opacity="1.000000" stroke="none" 
	d="
M230.845459,207.338470 
	C231.597748,212.583725 232.902588,217.489136 232.695450,222.329865 
	C232.463226,227.756683 227.446945,230.041138 223.561050,227.161148 
	C222.942749,226.702911 222.130203,225.969101 222.102829,225.332779 
	C221.756302,217.274231 221.436508,209.189438 226.998566,201.200577 
	C228.526550,203.562653 229.628647,205.266388 230.845459,207.338470 
z"/>
</svg>